# xmcd
#
# Track frame offsets:
#	150
#	14404
#	34463
#	54916
#	68838
#	79955
#	99753
#	114496
#	125607
#	145145
#	158251
#	176807
#	190125
#	204027
#	225175
#
# Disc length: 3202 seconds
#
# Revision: 1
# Processed by: cddbd v1.4PL0 Copyright (c) Steve Scherf et al.
# Submitted via: audiograbber 1.80
#
DISCID=b70c800f
DTITLE=Various Artist - AVALON BLUES A TRIBUTE TO MISSISSIPPI JOHN HURT
DYEAR=1900
DGENRE=
TTITLE0=FRANKIE and ALBERT  Chris Smither
TTITLE1=AVALON MY HOME TOWN  Bruce Cockburn
TTITLE2=ANGELS LAID HIM AWAY  Lucinda Williams
TTITLE3=HERE AM I,OH LORD,SEND ME  Alvin Youngblood hart
TTITLE4=CADY MAN  Steve and Justin Earle
TTITLE5=MONDAY MORNING BLUES  Peter Case and Dave Alvin
TTITLE6=SLIDING DELTA  Ben Harper
TTITLE7=CHICKEN  Geoff Muldaur(with Jenny and Clare Muldaur)
TTITLE8=MAKE ME A PALLET ON YOUR FLOOR  Mark Selby
TTITLE9=STAGOLEE  Beck
TTITLE10=SINCE I'VE LAID MY BURDON DOWN  Victoria Williams
TTITLE11=PAY DAY  Bill Morrissey
TTITLE12=MY CREOLE BELLE  Taj Mahal
TTITLE13=BEULAH LAND  Gillian Welch
TTITLE14=I'M SATISFIED John Hiatt
EXTD=Produced by Peter Case
EXTT0=
EXTT1=
EXTT2=
EXTT3=
EXTT4=
EXTT5=
EXTT6=
EXTT7=
EXTT8=
EXTT9=
EXTT10=
EXTT11=
EXTT12=
EXTT13=
EXTT14=
PLAYORDER=
